<?xml version="1.0" encoding="utf-8"?>
<!-- Generator: Adobe Illustrator 24.0.2, SVG Export Plug-In . SVG Version: 6.00 Build 0)  -->
<svg version="1.1" id="Layer_1" xmlns="http://www.w3.org/2000/svg" xmlns:xlink="http://www.w3.org/1999/xlink" x="0px" y="0px"
	 viewBox="0 0 24 24" style="enable-background:new 0 0 24 24;" xml:space="preserve">
<style type="text/css">
	.st0{fill:#FFFFFF;}
</style>
<g>
	<path class="st0" d="M12,22.7c-0.1,0-0.3,0-0.4-0.1c-0.3-0.2-8.3-5.7-8.3-12.4c0-2.4,0.9-4.6,2.5-6.2C7.5,2.3,9.7,1.4,12,1.4
		c2.3,0,4.5,0.9,6.1,2.6c1.6,1.7,2.5,3.9,2.5,6.2c0,6.6-7.9,12.1-8.3,12.4C12.3,22.6,12.1,22.7,12,22.7z M12,2.6
		c-2,0-3.8,0.8-5.2,2.2c-1.4,1.4-2.2,3.3-2.2,5.3c0,5.2,5.8,9.9,7.4,11c1.5-1.1,7.3-5.8,7.3-11c0-2-0.8-3.9-2.2-5.3
		C15.8,3.4,14,2.6,12,2.6z"/>
</g>
<g>
	<path class="st0" d="M12,13.6c-1.8,0-3.3-1.5-3.3-3.4s1.5-3.4,3.3-3.4c1.8,0,3.3,1.5,3.3,3.4S13.8,13.6,12,13.6z M12,8.1
		c-1.1,0-2,0.9-2,2.1s0.9,2.1,2,2.1c1.1,0,2-0.9,2-2.1S13.1,8.1,12,8.1z"/>
</g>
</svg>
