<?xml version="1.0" encoding="utf-8"?>
<!-- Generator: Adobe Illustrator 24.0.2, SVG Export Plug-In . SVG Version: 6.00 Build 0)  -->
<svg version="1.1" id="Layer_1" xmlns="http://www.w3.org/2000/svg" xmlns:xlink="http://www.w3.org/1999/xlink" x="0px" y="0px"
	 viewBox="0 0 24 24" style="enable-background:new 0 0 24 24;" xml:space="preserve">
<style type="text/css">
	.st0{fill:#FFFFFF;}
</style>
<g>
	<path class="st0" d="M20,20.7H4c-1.5,0-2.6-1.1-2.6-2.5V6.9c0-1.4,1.2-2.5,2.6-2.5h16c1.5,0,2.7,1.1,2.7,2.5v11.3
		C22.7,19.5,21.5,20.7,20,20.7z M4,5.6c-0.7,0-1.4,0.5-1.4,1.2v11.3c0,0.7,0.6,1.2,1.4,1.2h16c0.7,0,1.3-0.5,1.3-1.2V6.9
		c0-0.7-0.6-1.2-1.3-1.2H4z"/>
</g>
<g>
	<path class="st0" d="M12,14.1c-0.1,0-0.2,0-0.4-0.1l-10-6.6C1.3,7.2,1.3,6.8,1.5,6.5c0.2-0.3,0.6-0.4,0.9-0.2l9.6,6.3l9.6-6.3
		c0.3-0.2,0.7-0.1,0.9,0.2c0.2,0.3,0.1,0.7-0.2,0.9l-10,6.6C12.2,14.1,12.1,14.1,12,14.1z"/>
</g>
</svg>
