<svg width="24" height="24" viewBox="0 0 24 24" fill="none" xmlns="http://www.w3.org/2000/svg">
<path fill-rule="evenodd" clip-rule="evenodd" d="M5.04348 7.08696C6.17206 7.08696 7.08696 6.17206 7.08696 5.04348C7.08696 3.9149 6.17206 3 5.04348 3C3.9149 3 3 3.9149 3 5.04348C3 6.17206 3.9149 7.08696 5.04348 7.08696ZM5.04348 8.08696C6.72434 8.08696 8.08696 6.72434 8.08696 5.04348C8.08696 3.36261 6.72434 2 5.04348 2C3.36261 2 2 3.36261 2 5.04348C2 6.72434 3.36261 8.08696 5.04348 8.08696Z" fill="white"/>
<path fill-rule="evenodd" clip-rule="evenodd" d="M5.04348 14.0435C6.17206 14.0435 7.08696 13.1286 7.08696 12C7.08696 10.8714 6.17206 9.95654 5.04348 9.95654C3.9149 9.95654 3 10.8714 3 12C3 13.1286 3.9149 14.0435 5.04348 14.0435ZM5.04348 15.0435C6.72434 15.0435 8.08696 13.6809 8.08696 12C8.08696 10.3192 6.72434 8.95654 5.04348 8.95654C3.36261 8.95654 2 10.3192 2 12C2 13.6809 3.36261 15.0435 5.04348 15.0435Z" fill="white"/>
<path fill-rule="evenodd" clip-rule="evenodd" d="M5.04348 21C6.17206 21 7.08696 20.0851 7.08696 18.9566C7.08696 17.828 6.17206 16.9131 5.04348 16.9131C3.9149 16.9131 3 17.828 3 18.9566C3 20.0851 3.9149 21 5.04348 21ZM5.04348 22C6.72434 22 8.08696 20.6374 8.08696 18.9566C8.08696 17.2757 6.72434 15.9131 5.04348 15.9131C3.36261 15.9131 2 17.2757 2 18.9566C2 20.6374 3.36261 22 5.04348 22Z" fill="white"/>
<path fill-rule="evenodd" clip-rule="evenodd" d="M12 7.08696C13.1286 7.08696 14.0435 6.17206 14.0435 5.04348C14.0435 3.9149 13.1286 3 12 3C10.8714 3 9.95654 3.9149 9.95654 5.04348C9.95654 6.17206 10.8714 7.08696 12 7.08696ZM12 8.08696C13.6809 8.08696 15.0435 6.72434 15.0435 5.04348C15.0435 3.36261 13.6809 2 12 2C10.3192 2 8.95654 3.36261 8.95654 5.04348C8.95654 6.72434 10.3192 8.08696 12 8.08696Z" fill="white"/>
<path fill-rule="evenodd" clip-rule="evenodd" d="M12 14.0435C13.1286 14.0435 14.0435 13.1286 14.0435 12C14.0435 10.8714 13.1286 9.95654 12 9.95654C10.8714 9.95654 9.95654 10.8714 9.95654 12C9.95654 13.1286 10.8714 14.0435 12 14.0435ZM12 15.0435C13.6809 15.0435 15.0435 13.6809 15.0435 12C15.0435 10.3192 13.6809 8.95654 12 8.95654C10.3192 8.95654 8.95654 10.3192 8.95654 12C8.95654 13.6809 10.3192 15.0435 12 15.0435Z" fill="white"/>
<path fill-rule="evenodd" clip-rule="evenodd" d="M12 21C13.1286 21 14.0435 20.0851 14.0435 18.9566C14.0435 17.828 13.1286 16.9131 12 16.9131C10.8714 16.9131 9.95654 17.828 9.95654 18.9566C9.95654 20.0851 10.8714 21 12 21ZM12 22C13.6809 22 15.0435 20.6374 15.0435 18.9566C15.0435 17.2757 13.6809 15.9131 12 15.9131C10.3192 15.9131 8.95654 17.2757 8.95654 18.9566C8.95654 20.6374 10.3192 22 12 22Z" fill="white"/>
<path fill-rule="evenodd" clip-rule="evenodd" d="M18.9566 7.08696C20.0851 7.08696 21 6.17206 21 5.04348C21 3.9149 20.0851 3 18.9566 3C17.828 3 16.9131 3.9149 16.9131 5.04348C16.9131 6.17206 17.828 7.08696 18.9566 7.08696ZM18.9566 8.08696C20.6374 8.08696 22 6.72434 22 5.04348C22 3.36261 20.6374 2 18.9566 2C17.2757 2 15.9131 3.36261 15.9131 5.04348C15.9131 6.72434 17.2757 8.08696 18.9566 8.08696Z" fill="white"/>
<path fill-rule="evenodd" clip-rule="evenodd" d="M18.9566 14.0435C20.0851 14.0435 21 13.1286 21 12C21 10.8714 20.0851 9.95654 18.9566 9.95654C17.828 9.95654 16.9131 10.8714 16.9131 12C16.9131 13.1286 17.828 14.0435 18.9566 14.0435ZM18.9566 15.0435C20.6374 15.0435 22 13.6809 22 12C22 10.3192 20.6374 8.95654 18.9566 8.95654C17.2757 8.95654 15.9131 10.3192 15.9131 12C15.9131 13.6809 17.2757 15.0435 18.9566 15.0435Z" fill="white"/>
<path fill-rule="evenodd" clip-rule="evenodd" d="M18.9566 21C20.0851 21 21 20.0851 21 18.9566C21 17.828 20.0851 16.9131 18.9566 16.9131C17.828 16.9131 16.9131 17.828 16.9131 18.9566C16.9131 20.0851 17.828 21 18.9566 21ZM18.9566 22C20.6374 22 22 20.6374 22 18.9566C22 17.2757 20.6374 15.9131 18.9566 15.9131C17.2757 15.9131 15.9131 17.2757 15.9131 18.9566C15.9131 20.6374 17.2757 22 18.9566 22Z" fill="white"/>
</svg>
