<?xml version="1.0" encoding="utf-8"?>
<!-- Generator: Adobe Illustrator 24.0.2, SVG Export Plug-In . SVG Version: 6.00 Build 0)  -->
<svg version="1.1" id="Layer_1" xmlns="http://www.w3.org/2000/svg" xmlns:xlink="http://www.w3.org/1999/xlink" x="0px" y="0px"
	 viewBox="0 0 24 24" style="enable-background:new 0 0 24 24;" xml:space="preserve">
<style type="text/css">
	.st0{fill:#FFFFFF;}
</style>
<g>
	<path class="st0" d="M20,22.4c-0.1,0-0.2,0-0.2,0c-3.1-0.3-6.2-1.4-8.9-3.1c-2.5-1.6-4.6-3.7-6.1-6.2C3,10.5,2,7.4,1.6,4.2
		c0-0.4,0-0.7,0.1-1C1.9,2.9,2,2.6,2.3,2.3s0.5-0.5,0.8-0.6s0.7-0.2,1-0.2h3c0.6,0,1.2,0.2,1.6,0.6S9.5,3,9.6,3.7
		c0.1,0.9,0.3,1.8,0.7,2.7c0.2,0.4,0.2,0.9,0.1,1.4C10.3,8.2,10.1,8.7,9.7,9l-1,1c1.3,2.2,3.1,4,5.3,5.3l1-1
		c0.3-0.3,0.8-0.6,1.2-0.7c0.5-0.1,1-0.1,1.4,0.1c0.9,0.3,1.8,0.6,2.7,0.7c0.6,0.1,1.2,0.4,1.6,0.9c0.4,0.5,0.6,1.1,0.6,1.7v3
		c0,0.4-0.1,0.7-0.2,1c-0.1,0.3-0.3,0.6-0.6,0.8c-0.3,0.2-0.6,0.4-0.9,0.5C20.5,22.4,20.3,22.4,20,22.4z M7.1,2.5
		C7.1,2.5,7.1,2.5,7.1,2.5h-3c-0.2,0-0.4,0-0.6,0.1C3.3,2.7,3.1,2.8,3,3C2.9,3.1,2.8,3.3,2.7,3.5C2.6,3.7,2.6,3.9,2.6,4.1
		c0.3,3,1.4,5.9,3,8.4c1.5,2.3,3.5,4.4,5.8,5.9c2.5,1.6,5.4,2.7,8.4,3c0.2,0,0.4,0,0.6-0.1c0.2-0.1,0.4-0.2,0.5-0.3
		c0.2-0.1,0.3-0.3,0.4-0.5c0.1-0.2,0.1-0.4,0.1-0.6v-3c0,0,0,0,0,0c0-0.4-0.1-0.7-0.4-1c-0.2-0.3-0.6-0.5-0.9-0.5
		c-1-0.1-2-0.4-2.9-0.7c-0.3-0.1-0.6-0.1-0.8-0.1c-0.3,0.1-0.5,0.2-0.7,0.4l-1.3,1.3c-0.2,0.2-0.4,0.2-0.6,0.1
		c-2.6-1.5-4.7-3.6-6.2-6.2C7.5,10,7.6,9.7,7.7,9.6L9,8.3c0.2-0.2,0.3-0.5,0.4-0.7c0.1-0.3,0-0.6-0.1-0.8C9,5.8,8.7,4.8,8.6,3.8
		C8.6,3.4,8.4,3.1,8.1,2.9C7.8,2.6,7.5,2.5,7.1,2.5z"/>
</g>
</svg>
