<?xml version="1.0" encoding="utf-8"?>
<!-- Generator: Adobe Illustrator 24.0.2, SVG Export Plug-In . SVG Version: 6.00 Build 0)  -->
<svg version="1.1" id="Layer_1" xmlns="http://www.w3.org/2000/svg" xmlns:xlink="http://www.w3.org/1999/xlink" x="0px" y="0px"
	 viewBox="0 0 24 24" style="enable-background:new 0 0 24 24;" xml:space="preserve">
<style type="text/css">
	.st0{fill:#FFFFFF;}
</style>
<g>
	<path class="st0" d="M10.6,18.8c-4.5,0-8.2-3.7-8.2-8.2S6,2.4,10.6,2.4s8.2,3.7,8.2,8.2S15.1,18.8,10.6,18.8z M10.6,3.6
		c-3.8,0-6.9,3.1-6.9,6.9s3.1,6.9,6.9,6.9s6.9-3.1,6.9-6.9S14.4,3.6,10.6,3.6z"/>
</g>
<g>
	<path class="st0" d="M20,20.7c-0.2,0-0.3-0.1-0.5-0.2l-4.1-4.1c-0.3-0.3-0.3-0.7,0-0.9s0.7-0.3,0.9,0l4.1,4.1
		c0.3,0.3,0.3,0.7,0,0.9C20.3,20.6,20.2,20.7,20,20.7z"/>
</g>
</svg>
